<?xml version="1.0" encoding="UTF-8"?>
<svg id="_Слой_1" data-name="Слой 1" xmlns="http://www.w3.org/2000/svg" viewBox="0 0 400 150">
  <defs>
    <style>
      .cls-1 {
        stroke-width: 0px;
        fill: #f0f0f0;
      }
    </style>
  </defs>
  <path class="cls-1" d="m48.72,69.79c.59-2.69,1.08-4.91,1.68-7.64h-18.37c.27-8.25,3.41-14.4,9.89-18.72,7.42-4.95,15.95-6.35,24.58-7.45,2.39-.3,5.04-.85,6.97-2.17,22.56-15.38,47.03-18.45,72.93-11.18,11.02,3.09,21.83,6.99,32.63,10.84,14.04,5.01,27.94,4.97,42.01.1,11.92-4.13,23.84-8.43,36.02-11.65,25.22-6.67,48.77-2.45,70.42,12.29,2.22,1.51,5.12,2.18,7.8,2.83,10.58,2.59,20.23,6.68,26.94,15.82,3.49,4.76,5.63,10.05,6.31,16.52h-16.31v12.72h16.9c-.49,10.53-4.43,18.79-11.77,25.35-7.71,6.9-17.22,9.78-27.2,11.51-1.92.33-4,.75-5.6,1.76-24.62,15.55-50.62,16.57-77.63,7.67-11.67-3.85-23.3-7.84-35.05-11.42-10.09-3.08-20.11-1.55-29.91,1.69-11.04,3.65-21.95,7.75-33.09,11.07-26.07,7.76-50.98,5.52-73.25-9.18-9.39-.56-17.86-.89-26.3-1.65-3.09-.28-6.2-1.29-9.09-2.47-13.53-5.5-19.12-19.62-13.2-33,3.03-6.84,8.9-10.06,15.62-12.14,1.89-.59,3.85-.96,6.07-1.5Zm175.87-32.74c10.8,1.3,21.35,2.96,24.57,15.29,2.99,11.43-.51,20.9-11.71,27.15,5.5,2.41,8.41,6.05,8.99,11.29.33,2.97.34,5.98.54,8.96.41,6.05.09,12.26,4.45,18.28h-20.21c30.03,14.97,72.59,15.82,83.94,2.8-8.33-.93-17.16-1.38-25.76-3.02-11.39-2.18-21.48-7.23-28.39-17.06-14.98-21.31-5.97-50.73,18.52-60.53,9.7-3.88,19.85-5.43,30.28-5.27,3.21.05,6.43,0,9.86,0-.36-.86-.4-1.28-.61-1.41-10.34-6.05-21.45-9.71-33.43-10.62-21.77-1.66-41.36,6.3-61.05,14.14Zm-49.63.18c.07-.4.15-.8.22-1.2-9.84-3.28-19.56-6.96-29.53-9.75-21.48-6.02-42.43-4.86-62.35,6-1.04.57-1.95,1.39-2.78,1.99,10.95.95,21.75,1.39,32.39,2.93,19.04,2.75,27.64,12.77,28.1,31.92.23,9.82.08,19.65.11,29.47.02,6.41-.72,12.96,4.29,18.91h-38.08c-.89-3.38-1.71-6.53-2.69-10.28-6.54,6.62-14.43,9.71-23.64,12.09,14.48,8.25,28.92,11.71,44.44,10.78,15.34-.91,29.55-5.88,43.64-11.35-.05-.36-.11-.72-.16-1.08h-15.44V37.23h21.5Zm156.04,32.39c-7.62-10.75-15.87-13.76-26.72-10.04-8.25,2.83-12.7,9.68-12.32,18.95.36,8.76,5.9,15.33,14.57,17.28,10.97,2.47,18.6-1.57,25.49-13.8h15.62v-12.38h-16.64Zm-115.56,44.16c-.44-5.41-.69-9.84-1.19-14.25-.36-3.15-2.34-5.37-5.45-5.6-7.85-.59-15.72-.81-23.68-1.18v20.94c10.03-2.6,19.72-2.66,30.32.09Zm-110.47-32.12c-7.81.83-15.22,1.59-22.62,2.43-3.47.39-6.95.79-10.36,1.49-3.23.66-6.1,1.99-6.15,6.04-.04,3.31,1.99,6.21,5.89,7.1,9.82,2.26,19.29,1.23,27.62-4.78,4.21-3.03,6.54-7.36,5.63-12.28Zm-36.53-19.44h-13.6c-.73,2.23-1.38,4.23-2.13,6.51,1.26.16,2.06.39,2.84.35,12.97-.7,25.95-1.32,38.9-2.24,2.84-.2,5.61-1.5,8.07-2.2.79-5.49-.03-7.14-4.41-8.76-6.42-2.37-13.01-2.21-19.7-1.18-4.61.71-8.25,2.42-9.98,7.51Zm116.6,9.7c1.39.09,2.2.19,3.02.19,5.97,0,11.94.04,17.91-.08,1.63-.03,3.3-.36,4.85-.85,3.65-1.15,5.35-3.54,5.18-6.9-.16-3.28-2.28-6-6.02-6.15-8.21-.33-16.45-.1-24.94-.1v13.9Z"/>
</svg>